<svg xmlns="http://www.w3.org/2000/svg" xmlns:xlink="http://www.w3.org/1999/xlink" width="500" zoomAndPan="magnify" viewBox="0 0 375 149.999998" height="200" preserveAspectRatio="xMidYMid meet" version="1.0"><defs><g/><clipPath id="c1dff80b6d"><path d="M 1 0.492188 L 114.367188 0.492188 L 114.367188 113.859375 L 1 113.859375 Z M 1 0.492188 " clip-rule="nonzero"/></clipPath><clipPath id="e6ee84a650"><path d="M 29.371094 38.292969 L 11.480469 45.957031 C 11.648438 30.992188 16.941406 17.714844 26.484375 9.722656 C 25.867188 13.511719 25.890625 18.253906 26.585938 23.902344 C 27.136719 28.355469 28.082031 33.199219 29.371094 38.292969 Z M 92.117188 11.410156 C 84.6875 5.773438 75.832031 1.917969 66.179688 0.492188 C 73.214844 3.460938 79.984375 8.058594 86.007812 14.027344 Z M 57.890625 26.074219 C 48.828125 11.875 40.429688 4.378906 35.984375 4.378906 C 35.816406 4.378906 35.660156 4.402344 35.503906 4.425781 C 34.984375 4.644531 34.476562 4.882812 33.964844 5.121094 C 30.671875 7.992188 30.167969 19.390625 34.308594 36.179688 Z M 16.59375 73.15625 L 38.015625 63.980469 C 35.125 56.996094 32.6875 50.074219 30.777344 43.484375 L 11.667969 51.671875 C 12.1875 58.691406 13.796875 65.964844 16.59375 73.15625 Z M 54.332031 12.015625 C 57.175781 15.484375 60.03125 19.507812 62.832031 23.957031 L 80.722656 16.292969 C 70.921875 7.160156 59.269531 1.921875 48.0625 1.921875 C 46.746094 1.921875 45.4375 2.003906 44.136719 2.152344 C 47.304688 4.320312 50.722656 7.617188 54.332031 12.015625 Z M 30.835938 96.441406 L 49.957031 88.25 C 46.5 82.320312 43.171875 75.785156 40.113281 68.875 L 18.6875 78.050781 C 21.960938 85.035156 26.113281 91.226562 30.835938 96.441406 Z M 84.734375 20.367188 L 65.617188 28.558594 C 69.070312 34.488281 72.402344 41.027344 75.460938 47.9375 L 96.886719 38.757812 C 93.609375 31.773438 89.457031 25.585938 84.734375 20.367188 Z M 101.78125 36.660156 L 109.582031 33.316406 C 106.484375 26.464844 102.074219 20.339844 96.660156 15.257812 L 89.871094 18.167969 C 94.492188 23.511719 98.546875 29.722656 101.78125 36.660156 Z M 79.882812 75.429688 C 78.097656 69.175781 75.714844 62.292969 72.664062 54.929688 L 45.007812 66.777344 C 48.234375 74.066406 51.574219 80.539062 54.871094 86.144531 Z M 60.699219 30.664062 L 35.691406 41.378906 C 37.476562 47.632812 39.859375 54.515625 42.910156 61.878906 L 70.566406 50.03125 C 67.335938 42.738281 63.996094 36.273438 60.699219 30.664062 Z M 61.242188 104.792969 C 58.398438 101.324219 55.542969 97.300781 52.742188 92.851562 L 34.847656 100.515625 C 41.671875 106.878906 49.398438 111.34375 57.242188 113.472656 C 57.433594 113.472656 57.617188 113.488281 57.808594 113.488281 C 61.496094 113.488281 65.097656 113.121094 68.59375 112.449219 C 66.25 110.453125 63.796875 107.90625 61.242188 104.792969 Z M 88.984375 92.90625 C 89.5 97.058594 89.644531 100.714844 89.441406 103.867188 C 92.121094 102.066406 94.632812 100.035156 96.964844 97.8125 C 101.507812 90.34375 103.980469 80.988281 104.089844 70.851562 L 86.203125 78.515625 C 87.492188 83.609375 88.4375 88.457031 88.984375 92.90625 Z M 98.980469 43.652344 L 77.558594 52.832031 C 80.449219 59.8125 82.886719 66.734375 84.792969 73.324219 L 103.90625 65.136719 C 103.386719 58.117188 101.777344 50.84375 98.980469 43.652344 Z M 108.128906 83.03125 C 110.773438 77.996094 112.675781 72.515625 113.710938 66.730469 L 109.375 68.589844 C 109.472656 73.582031 109.042969 78.429688 108.128906 83.03125 Z M 111.546875 38.269531 L 103.875 41.558594 C 106.664062 48.683594 108.363281 55.90625 109.046875 62.9375 L 114.464844 60.613281 C 114.550781 59.3125 114.613281 58.003906 114.613281 56.679688 C 114.613281 50.234375 113.523438 44.046875 111.546875 38.269531 Z M 57.679688 90.734375 C 64.28125 101.078125 70.527344 107.855469 75.152344 110.78125 C 78.117188 109.832031 80.96875 108.640625 83.699219 107.238281 C 84.8125 101.894531 84.226562 92.644531 81.265625 80.628906 Z M 9.027344 27.566406 C 4.96875 34.351562 2.289062 42.054688 1.367188 50.292969 L 6.199219 48.21875 C 6.054688 40.921875 7.03125 33.929688 9.027344 27.566406 Z M 7.410156 82.882812 C 10.925781 89.636719 15.75 95.597656 21.558594 100.417969 L 25.707031 98.640625 C 21.085938 93.296875 17.027344 87.089844 13.789062 80.152344 Z M 6.527344 53.871094 L 1.011719 56.234375 C 1.011719 56.386719 1 56.53125 1 56.679688 C 1 64.242188 2.488281 71.449219 5.171875 78.050781 L 11.699219 75.25 C 8.910156 68.125 7.210938 60.902344 6.527344 53.871094 Z M 26.515625 104.085938 C 30.109375 106.464844 33.984375 108.449219 38.089844 109.96875 C 35.128906 107.859375 32.269531 105.460938 29.566406 102.78125 Z M 26.515625 104.085938 " clip-rule="nonzero"/></clipPath><clipPath id="50acbe6400"><path d="M 120 6 L 352.71875 6 L 352.71875 125.761719 L 120 125.761719 Z M 120 6 " clip-rule="nonzero"/></clipPath><clipPath id="55ff08f80d"><rect x="0" width="233" y="0" height="120"/></clipPath><clipPath id="3ba6bb2126"><rect x="0" width="353" y="0" height="126"/></clipPath></defs><g transform="matrix(1, 0, 0, 1, 14, 18)"><g clip-path="url(#3ba6bb2126)"><g clip-path="url(#c1dff80b6d)"><g clip-path="url(#e6ee84a650)"><path fill="#001896" d="M 1 0.492188 L 1 113.488281 L 114.367188 113.488281 L 114.367188 0.492188 Z M 1 0.492188 " fill-opacity="1" fill-rule="nonzero"/></g></g><g clip-path="url(#50acbe6400)"><g transform="matrix(1, 0, 0, 1, 120, 6)"><g clip-path="url(#55ff08f80d)"><g fill="#001896" fill-opacity="1"><g transform="translate(1.385597, 75.425023)"><g><path d="M 40.90625 -20.609375 L 46.890625 -10.0625 C 47.691406 -8.726562 48.476562 -7.710938 49.25 -7.015625 C 50.019531 -6.328125 50.722656 -5.785156 51.359375 -5.390625 C 52.003906 -4.992188 52.515625 -4.582031 52.890625 -4.15625 C 53.265625 -3.726562 53.453125 -3.085938 53.453125 -2.234375 C 53.453125 -1.378906 53.144531 -0.789062 52.53125 -0.46875 C 51.914062 -0.15625 50.863281 0 49.375 0 L 37.625 0 C 36.351562 0 35.394531 -0.171875 34.75 -0.515625 C 34.113281 -0.859375 33.796875 -1.457031 33.796875 -2.3125 C 33.796875 -3.007812 33.992188 -3.609375 34.390625 -4.109375 C 34.785156 -4.617188 35.179688 -5.125 35.578125 -5.625 C 35.984375 -6.132812 36.210938 -6.773438 36.265625 -7.546875 C 36.316406 -8.316406 36 -9.289062 35.3125 -10.46875 L 30.84375 -18.296875 C 30.195312 -18.242188 29.539062 -18.203125 28.875 -18.171875 C 28.207031 -18.148438 27.53125 -18.140625 26.84375 -18.140625 L 20.53125 -18.140625 C 19.46875 -18.140625 18.9375 -17.601562 18.9375 -16.53125 L 18.9375 -13.34375 C 18.9375 -10.945312 19.1875 -9.1875 19.6875 -8.0625 C 20.195312 -6.945312 20.785156 -6.148438 21.453125 -5.671875 C 22.117188 -5.191406 22.703125 -4.738281 23.203125 -4.3125 C 23.710938 -3.882812 23.96875 -3.191406 23.96875 -2.234375 C 23.96875 -1.378906 23.644531 -0.789062 23 -0.46875 C 22.363281 -0.15625 21.222656 0 19.578125 0 L 6.875 0 C 5.269531 0 4.117188 -0.15625 3.421875 -0.46875 C 2.734375 -0.789062 2.390625 -1.378906 2.390625 -2.234375 C 2.390625 -3.191406 2.65625 -3.882812 3.1875 -4.3125 C 3.726562 -4.738281 4.34375 -5.191406 5.03125 -5.671875 C 5.726562 -6.148438 6.34375 -6.945312 6.875 -8.0625 C 7.40625 -9.1875 7.671875 -10.945312 7.671875 -13.34375 L 7.671875 -42.34375 C 7.671875 -43.25 7.65625 -43.976562 7.625 -44.53125 C 7.601562 -45.09375 7.539062 -45.613281 7.4375 -46.09375 C 7.21875 -47.375 6.84375 -48.347656 6.3125 -49.015625 C 5.78125 -49.679688 5.207031 -50.195312 4.59375 -50.5625 C 3.976562 -50.9375 3.457031 -51.335938 3.03125 -51.765625 C 2.601562 -52.191406 2.390625 -52.832031 2.390625 -53.6875 C 2.390625 -54.539062 2.734375 -55.125 3.421875 -55.4375 C 4.117188 -55.757812 5.269531 -55.921875 6.875 -55.921875 L 24.28125 -55.921875 C 30.039062 -55.921875 34.863281 -55.066406 38.75 -53.359375 C 42.632812 -51.660156 45.5625 -49.316406 47.53125 -46.328125 C 49.5 -43.347656 50.484375 -39.941406 50.484375 -36.109375 C 50.484375 -28.597656 47.289062 -23.429688 40.90625 -20.609375 Z M 26.28125 -23.015625 C 30.226562 -23.015625 33.316406 -24.007812 35.546875 -26 C 37.785156 -28 38.90625 -30.941406 38.90625 -34.828125 C 38.90625 -38.128906 38.25 -41.003906 36.9375 -43.453125 C 35.632812 -45.910156 33.863281 -47.800781 31.625 -49.125 C 29.394531 -50.457031 26.816406 -51.125 23.890625 -51.125 C 21.753906 -51.175781 20.394531 -51.054688 19.8125 -50.765625 C 19.226562 -50.472656 18.9375 -49.898438 18.9375 -49.046875 L 18.9375 -25.5625 C 18.9375 -24.601562 19.441406 -23.9375 20.453125 -23.5625 C 21.460938 -23.195312 23.40625 -23.015625 26.28125 -23.015625 Z M 26.28125 -23.015625 "/></g></g></g><g fill="#001896" fill-opacity="1"><g transform="translate(56.492857, 75.425023)"><g><path d="M 7.671875 -13.34375 L 7.671875 -42.578125 C 7.671875 -44.972656 7.414062 -46.726562 6.90625 -47.84375 C 6.40625 -48.96875 5.804688 -49.769531 5.109375 -50.25 C 4.421875 -50.726562 3.820312 -51.179688 3.3125 -51.609375 C 2.8125 -52.035156 2.5625 -52.726562 2.5625 -53.6875 C 2.5625 -54.539062 2.890625 -55.125 3.546875 -55.4375 C 4.210938 -55.757812 5.375 -55.921875 7.03125 -55.921875 L 19.734375 -55.921875 C 21.273438 -55.921875 22.390625 -55.757812 23.078125 -55.4375 C 23.773438 -55.125 24.125 -54.539062 24.125 -53.6875 C 24.125 -52.726562 23.859375 -52.035156 23.328125 -51.609375 C 22.796875 -51.179688 22.195312 -50.726562 21.53125 -50.25 C 20.863281 -49.769531 20.265625 -48.96875 19.734375 -47.84375 C 19.203125 -46.726562 18.9375 -44.972656 18.9375 -42.578125 L 18.9375 -13.34375 C 18.9375 -10.945312 19.1875 -9.1875 19.6875 -8.0625 C 20.195312 -6.945312 20.785156 -6.148438 21.453125 -5.671875 C 22.117188 -5.191406 22.703125 -4.738281 23.203125 -4.3125 C 23.710938 -3.882812 23.96875 -3.191406 23.96875 -2.234375 C 23.96875 -1.378906 23.644531 -0.789062 23 -0.46875 C 22.363281 -0.15625 21.222656 0 19.578125 0 L 6.875 0 C 5.269531 0 4.117188 -0.15625 3.421875 -0.46875 C 2.734375 -0.789062 2.390625 -1.378906 2.390625 -2.234375 C 2.390625 -3.191406 2.65625 -3.882812 3.1875 -4.3125 C 3.726562 -4.738281 4.34375 -5.191406 5.03125 -5.671875 C 5.726562 -6.148438 6.34375 -6.945312 6.875 -8.0625 C 7.40625 -9.1875 7.671875 -10.945312 7.671875 -13.34375 Z M 7.671875 -13.34375 "/></g></g></g><g fill="#001896" fill-opacity="1"><g transform="translate(83.008227, 75.425023)"><g><path d="M 31.3125 0.796875 C 25.71875 0.796875 20.800781 -0.375 16.5625 -2.71875 C 12.332031 -5.0625 9.046875 -8.304688 6.703125 -12.453125 C 4.367188 -16.609375 3.203125 -21.40625 3.203125 -26.84375 C 3.203125 -31 3.921875 -34.875 5.359375 -38.46875 C 6.796875 -42.0625 8.804688 -45.226562 11.390625 -47.96875 C 13.972656 -50.71875 17.003906 -52.863281 20.484375 -54.40625 C 23.972656 -55.945312 27.769531 -56.71875 31.875 -56.71875 C 34.96875 -56.71875 37.351562 -56.488281 39.03125 -56.03125 C 40.707031 -55.582031 42.023438 -55.359375 42.984375 -55.359375 C 43.992188 -55.359375 44.722656 -55.570312 45.171875 -56 C 45.628906 -56.425781 46.335938 -56.640625 47.296875 -56.640625 C 48.035156 -56.640625 48.671875 -56.359375 49.203125 -55.796875 C 49.742188 -55.242188 50.203125 -54.113281 50.578125 -52.40625 C 50.890625 -51.019531 51.207031 -49.4375 51.53125 -47.65625 C 51.851562 -45.875 52.195312 -43.753906 52.5625 -41.296875 C 52.882812 -39.066406 52.222656 -37.867188 50.578125 -37.703125 C 49.722656 -37.648438 49.015625 -37.929688 48.453125 -38.546875 C 47.890625 -39.160156 47.1875 -40.050781 46.34375 -41.21875 C 45.113281 -42.925781 43.816406 -44.550781 42.453125 -46.09375 C 41.097656 -47.632812 39.488281 -48.910156 37.625 -49.921875 C 35.757812 -50.941406 33.390625 -51.453125 30.515625 -51.453125 C 27.109375 -51.453125 24.234375 -50.570312 21.890625 -48.8125 C 19.546875 -47.050781 17.757812 -44.691406 16.53125 -41.734375 C 15.3125 -38.785156 14.703125 -35.550781 14.703125 -32.03125 C 14.703125 -26.863281 15.472656 -22.253906 17.015625 -18.203125 C 18.554688 -14.160156 20.765625 -10.96875 23.640625 -8.625 C 26.523438 -6.28125 29.960938 -5.109375 33.953125 -5.109375 C 35.335938 -5.109375 36.757812 -5.304688 38.21875 -5.703125 C 39.6875 -6.109375 40.925781 -6.722656 41.9375 -7.546875 C 42.945312 -8.367188 43.453125 -9.394531 43.453125 -10.625 L 43.453125 -16.53125 C 43.453125 -18.082031 43.1875 -19.296875 42.65625 -20.171875 C 42.125 -21.046875 41.457031 -21.695312 40.65625 -22.125 C 39.863281 -22.550781 39.050781 -22.894531 38.21875 -23.15625 C 37.394531 -23.425781 36.71875 -23.75 36.1875 -24.125 C 35.65625 -24.5 35.390625 -25.0625 35.390625 -25.8125 C 35.335938 -26.65625 35.644531 -27.25 36.3125 -27.59375 C 36.976562 -27.945312 38.132812 -28.125 39.78125 -28.125 L 54.171875 -28.28125 C 55.390625 -28.28125 56.289062 -28.117188 56.875 -27.796875 C 57.46875 -27.484375 57.789062 -26.898438 57.84375 -26.046875 C 57.84375 -25.242188 57.695312 -24.65625 57.40625 -24.28125 C 57.113281 -23.914062 56.753906 -23.503906 56.328125 -23.046875 C 55.898438 -22.597656 55.539062 -21.894531 55.25 -20.9375 C 54.957031 -19.976562 54.8125 -18.566406 54.8125 -16.703125 L 54.8125 -11.109375 C 54.8125 -9.242188 53.769531 -7.40625 51.6875 -5.59375 C 49.613281 -3.78125 46.804688 -2.273438 43.265625 -1.078125 C 39.722656 0.117188 35.738281 0.742188 31.3125 0.796875 Z M 31.3125 0.796875 "/></g></g></g><g fill="#001896" fill-opacity="1"><g transform="translate(144.824205, 75.425023)"><g><path d="M 7.671875 -13.34375 L 7.671875 -42.578125 C 7.671875 -44.972656 7.414062 -46.726562 6.90625 -47.84375 C 6.40625 -48.96875 5.804688 -49.769531 5.109375 -50.25 C 4.421875 -50.726562 3.820312 -51.179688 3.3125 -51.609375 C 2.8125 -52.035156 2.5625 -52.726562 2.5625 -53.6875 C 2.5625 -54.539062 2.890625 -55.125 3.546875 -55.4375 C 4.210938 -55.757812 5.375 -55.921875 7.03125 -55.921875 L 19.734375 -55.921875 C 21.273438 -55.921875 22.390625 -55.757812 23.078125 -55.4375 C 23.773438 -55.125 24.125 -54.539062 24.125 -53.6875 C 24.125 -52.726562 23.859375 -52.035156 23.328125 -51.609375 C 22.796875 -51.179688 22.195312 -50.726562 21.53125 -50.25 C 20.863281 -49.769531 20.265625 -48.96875 19.734375 -47.84375 C 19.203125 -46.726562 18.9375 -44.972656 18.9375 -42.578125 L 18.9375 -13.34375 C 18.9375 -10.945312 19.1875 -9.1875 19.6875 -8.0625 C 20.195312 -6.945312 20.785156 -6.148438 21.453125 -5.671875 C 22.117188 -5.191406 22.703125 -4.738281 23.203125 -4.3125 C 23.710938 -3.882812 23.96875 -3.191406 23.96875 -2.234375 C 23.96875 -1.378906 23.644531 -0.789062 23 -0.46875 C 22.363281 -0.15625 21.222656 0 19.578125 0 L 6.875 0 C 5.269531 0 4.117188 -0.15625 3.421875 -0.46875 C 2.734375 -0.789062 2.390625 -1.378906 2.390625 -2.234375 C 2.390625 -3.191406 2.65625 -3.882812 3.1875 -4.3125 C 3.726562 -4.738281 4.34375 -5.191406 5.03125 -5.671875 C 5.726562 -6.148438 6.34375 -6.945312 6.875 -8.0625 C 7.40625 -9.1875 7.671875 -10.945312 7.671875 -13.34375 Z M 7.671875 -13.34375 "/></g></g></g><g fill="#001896" fill-opacity="1"><g transform="translate(171.339575, 75.425023)"><g><path d="M 47.53125 -55.84375 L 54.640625 -55.84375 C 56.023438 -55.84375 57 -55.707031 57.5625 -55.4375 C 58.125 -55.175781 58.40625 -54.617188 58.40625 -53.765625 C 58.40625 -53.128906 58.191406 -52.597656 57.765625 -52.171875 C 57.335938 -51.742188 56.828125 -51.316406 56.234375 -50.890625 C 55.648438 -50.460938 55.144531 -49.875 54.71875 -49.125 C 54.300781 -48.382812 54.09375 -47.320312 54.09375 -45.9375 L 54.09375 -3.515625 C 54.09375 -2.503906 53.863281 -1.664062 53.40625 -1 C 52.957031 -0.332031 52.410156 0 51.765625 0 L 50.890625 0 C 50.359375 0 49.835938 -0.144531 49.328125 -0.4375 C 48.828125 -0.726562 48.203125 -1.273438 47.453125 -2.078125 L 13.109375 -41.0625 L 13.265625 -9.984375 C 13.265625 -8.648438 13.476562 -7.597656 13.90625 -6.828125 C 14.332031 -6.054688 14.835938 -5.457031 15.421875 -5.03125 C 16.003906 -4.601562 16.507812 -4.175781 16.9375 -3.75 C 17.363281 -3.320312 17.578125 -2.765625 17.578125 -2.078125 C 17.578125 -1.222656 17.28125 -0.675781 16.6875 -0.4375 C 16.101562 -0.195312 15.175781 -0.078125 13.90625 -0.078125 L 6.875 -0.078125 C 5.539062 -0.078125 4.578125 -0.222656 3.984375 -0.515625 C 3.398438 -0.804688 3.109375 -1.351562 3.109375 -2.15625 C 3.109375 -2.789062 3.320312 -3.320312 3.75 -3.75 C 4.175781 -4.175781 4.679688 -4.601562 5.265625 -5.03125 C 5.859375 -5.457031 6.367188 -6.054688 6.796875 -6.828125 C 7.222656 -7.597656 7.4375 -8.648438 7.4375 -9.984375 L 7.4375 -42.34375 C 7.4375 -43.25 7.421875 -43.976562 7.390625 -44.53125 C 7.359375 -45.09375 7.289062 -45.613281 7.1875 -46.09375 C 7.03125 -47.375 6.6875 -48.347656 6.15625 -49.015625 C 5.625 -49.679688 5.050781 -50.195312 4.4375 -50.5625 C 3.820312 -50.9375 3.285156 -51.335938 2.828125 -51.765625 C 2.378906 -52.191406 2.15625 -52.832031 2.15625 -53.6875 C 2.15625 -54.539062 2.5 -55.125 3.1875 -55.4375 C 3.882812 -55.757812 5.03125 -55.921875 6.625 -55.921875 L 13.015625 -55.921875 C 13.867188 -55.921875 14.585938 -55.757812 15.171875 -55.4375 C 15.765625 -55.125 16.328125 -54.644531 16.859375 -54 L 48.25 -18.0625 L 48.25 -45.9375 C 48.25 -47.320312 48.019531 -48.382812 47.5625 -49.125 C 47.113281 -49.875 46.597656 -50.460938 46.015625 -50.890625 C 45.429688 -51.316406 44.925781 -51.742188 44.5 -52.171875 C 44.070312 -52.597656 43.859375 -53.15625 43.859375 -53.84375 C 43.859375 -54.695312 44.164062 -55.242188 44.78125 -55.484375 C 45.394531 -55.722656 46.3125 -55.84375 47.53125 -55.84375 Z M 47.53125 -55.84375 "/></g></g></g></g></g></g></g></g></svg>